<svg width="30" height="30" viewBox="0 0 30 30" fill="none" xmlns="http://www.w3.org/2000/svg">
<g clip-path="url(#clip0_166_56)">
<path d="M2.29338e-05 28.8845C0.452078 27.8511 0.904133 26.8176 1.35032 25.7783C2.66539 22.7131 3.98045 19.6538 5.28378 16.5827C5.49513 16.0895 5.8239 15.8605 6.36402 15.8663C7.39728 15.884 8.43055 15.8722 9.5284 15.8722C9.45208 15.7313 9.39924 15.6256 9.34053 15.5199C8.45991 13.9403 7.66734 12.3138 7.29748 10.5287C6.72801 7.76299 7.10961 5.13821 8.88848 2.87749C10.6086 0.681369 12.9687 -0.228789 15.7163 0.0413225C19.5206 0.411258 22.2153 3.08889 22.8082 6.87045C23.1664 9.13116 22.6908 11.2333 21.775 13.2709C21.4345 14.0343 21.0294 14.7741 20.6536 15.5199C20.6008 15.6197 20.548 15.7254 20.4716 15.8722C20.683 15.8722 20.8533 15.8722 21.0235 15.8722C21.8924 15.8722 22.7613 15.884 23.6302 15.8663C24.1703 15.8546 24.499 16.0895 24.7104 16.5827C26.4071 20.5639 28.1155 24.5393 29.818 28.5205C30.1351 29.2662 30.0352 29.5833 29.3484 29.9943C19.7789 29.9943 10.2035 29.9943 0.634074 29.9943C0.416853 29.7771 0.205502 29.5657 -0.0117188 29.3484C2.29338e-05 29.2016 2.29338e-05 29.0431 2.29338e-05 28.8845ZM14.9824 20.6403C15.0294 20.6109 15.0529 20.605 15.0587 20.5933C15.3992 20.1529 15.7515 19.7242 16.0803 19.278C17.683 17.1229 19.1625 14.8916 20.2427 12.4136C20.9942 10.6872 21.3699 8.92564 21.0411 7.02899C20.5421 4.12236 18.4521 2.09065 15.5108 1.79705C13.1918 1.56804 10.5734 2.64849 9.44034 5.36722C8.61842 7.33433 8.63016 9.33668 9.33466 11.339C9.88652 12.901 10.6556 14.3572 11.5127 15.7665C12.5636 17.4635 13.7261 19.0783 14.9824 20.6403ZM9.96871 22.8305C10.0685 22.9362 10.1331 23.0067 10.2035 23.0713C11.5656 24.4336 12.9217 25.79 14.2838 27.1523C14.6419 27.5105 14.9472 28.0037 15.3816 28.1858C15.8278 28.3678 16.3973 28.2504 16.9139 28.2386C17.1018 28.2327 17.3014 28.1916 17.4658 28.1036C20.1311 26.7236 22.7965 25.3379 25.4619 23.9579C25.591 23.8933 25.7143 23.8229 25.8376 23.7524C25.8259 23.7054 25.82 23.6761 25.8082 23.6526C24.9805 21.7148 24.1468 19.783 23.3249 17.8452C23.2544 17.6749 23.1488 17.6514 22.9902 17.6514C21.8865 17.6573 20.7828 17.6632 19.6791 17.6456C19.456 17.6456 19.3386 17.7278 19.2094 17.898C18.0763 19.4365 16.9433 20.975 15.7808 22.4958C15.2994 23.13 14.7241 23.1124 14.2192 22.5134C13.8611 22.0906 13.5147 21.6561 13.1448 21.2157C12.0998 21.7383 11.0489 22.2786 9.96871 22.8305ZM12.8219 28.2269C12.7808 28.1682 12.775 28.1388 12.7515 28.1212C11.3131 26.6825 9.88065 25.2498 8.44816 23.8111C8.33662 23.6937 8.25443 23.7113 8.1194 23.7759C6.48143 24.6215 4.8376 25.4612 3.19963 26.3009C3.12331 26.342 3.02351 26.3831 2.99415 26.4535C2.72996 27.0349 2.48339 27.6279 2.2192 28.2327C5.77693 28.2269 9.27595 28.2269 12.8219 28.2269ZM4.14484 23.7524C4.16245 23.77 4.18006 23.7818 4.19767 23.7994C6.81607 22.4606 9.42859 21.1218 12.0529 19.7771C12.0294 19.7301 12.0235 19.689 12 19.6596C11.5715 19.0313 11.1429 18.403 10.7026 17.7865C10.6439 17.7043 10.4971 17.6514 10.3855 17.6514C9.26421 17.6397 8.14288 17.6514 7.02155 17.6397C6.82781 17.6397 6.73388 17.6984 6.65756 17.8804C5.92957 19.6009 5.18985 21.3214 4.45012 23.036C4.35032 23.2768 4.25051 23.5117 4.14484 23.7524ZM26.5538 25.3731C24.7339 26.3185 22.9433 27.2521 21.1527 28.1799C21.1585 28.1975 21.1644 28.2093 21.1703 28.2269C23.3601 28.2269 25.5499 28.2269 27.775 28.2269C27.364 27.2639 26.9648 26.3302 26.5538 25.3731Z" fill="white"/>
<path d="M0 29.354C0.217221 29.5713 0.428571 29.7827 0.645793 29.9999C0.428571 29.9999 0.217221 29.9999 0 29.9999C0 29.7885 0 29.5713 0 29.354Z" fill="white"/>
<path d="M17.6417 7.94469C17.6417 9.40094 16.444 10.593 14.9939 10.5871C13.5379 10.5812 12.3579 9.3892 12.3579 7.93295C12.3638 6.47082 13.5497 5.28468 15.0057 5.29055C16.4675 5.29642 17.6475 6.48256 17.6417 7.94469ZM14.9939 8.82549C15.4695 8.83136 15.8745 8.43206 15.8804 7.95643C15.8863 7.47493 15.5047 7.07563 15.0233 7.06389C14.5301 7.05215 14.125 7.45144 14.125 7.94469C14.1192 8.41445 14.5243 8.81962 14.9939 8.82549Z" fill="white"/>
</g>
<defs>
<clipPath id="clip0_166_56">
<rect width="30" height="30" fill="white"/>
</clipPath>
</defs>
</svg>
