<svg id="Capa_1" data-name="Capa 1" xmlns="http://www.w3.org/2000/svg" viewBox="0 0 240.01 196.58"><path d="M149.15,248.83c-23.13,0-46.26,0-69.39,0-15.83,0-26.84-11.8-25.81-27.59.71-10.81-.18-21.64-1.2-32.37-1.09-11.31-7-20.26-15.94-27.24-7.54-5.87-8.13-15.84-.55-21.6,13.18-10,17.65-23.63,17.81-39.34.08-8.15,0-16.31,0-24.46.14-13.06,7.83-21.68,20.72-23.15a112.24,112.24,0,0,1,12.43-.77q64.4-.07,128.8,0c19,0,27.86,8.85,27.94,27.77,0,9.64-.06,19.27.7,28.92,1.07,13.71,6.92,24.43,18.12,32.31.4.29.82.56,1.23.84,9.16,6.31,9.12,10.84-.22,17.19a44.84,44.84,0,0,0-9,7.83c-7.51,8.77-10.54,19.13-10.8,30.41-.19,8.48,0,17,0,25.46,0,15.78-10,25.78-25.93,25.81q-34.44.07-68.89,0Zm-38-98.06c0,15.63.06,31.26,0,46.89,0,4.61,1.8,6.59,6.55,6.51,15-.25,29.93-.13,44.89-.39,9.19-.16,16.66-3.88,22-11.61,9.69-14,7.33-30-6.5-42.34-2.15-1.92-3.37-3.07-.71-5.78,9.21-9.37,10.46-20.48,5.44-32.19-4.84-11.31-14.65-14.65-26.05-14.7-12.81-.07-25.61,0-38.41-.07-6.16,0-7.17.93-7.18,7.29Q111.13,127.57,111.18,150.77Z" transform="translate(-30.86 -52.29)"/><path d="M147.27,158.09c3.49,0,7-.19,10.48,0,7.58.5,12.3,5.85,12.29,13.63,0,8.16-4.32,12.77-12.39,13.18-7.31.37-14.62.59-21.92,1-3.13.19-4.63-.79-4.55-4.15.14-6.15.07-12.31,0-18.47,0-3.76,1.86-5.45,5.56-5.39,3.5.06,7,0,10.49,0Z" transform="translate(-30.86 -52.29)"/><path d="M146.87,116.12c3.47,0,7-.21,10.43,0,5.28.41,8.39,3.74,8.83,9,.63,7.61-1.35,11.64-7,12.94-7.83,1.77-15.84.93-23.77.8-2.71,0-4-2.1-4.06-4.76q-.07-6.7,0-13.42c0-3,1.7-4.6,4.66-4.66,3.64-.08,7.29,0,10.94,0Z" transform="translate(-30.86 -52.29)"/></svg>