<svg id="Capa_1" data-name="Capa 1" xmlns="http://www.w3.org/2000/svg" viewBox="0 0 212.11 239.97"><path d="M150.5,30.08h97.89c7.35,0,8.06.52,7.44,7.55-2.05,23.53-4.34,47-6.47,70.55-1.87,20.7-3.65,41.42-5.46,62.13q-3.12,35.77-6.19,71.57c-.29,3.37-1.77,5.3-5.26,6.26-25.37,6.92-50.68,14-76,21.05a27.23,27.23,0,0,1-14.79-.38Q105.31,258.75,69,248.73c-4.25-1.16-6.43-3.54-6.81-8Q57.67,187.79,53,134.85q-4.18-47-8.65-93.9c-1-10.8-1.11-10.87,9.78-10.87ZM150,75c-20.32,0-40.64.06-61-.06-4,0-6,.79-5.13,5.33a122.38,122.38,0,0,1,1.23,12.41c.62,8,.95,8.41,8.88,8.4l86.92-.11c6,0,6.53.54,6,6.66-.37,4.3-.91,8.6-1.49,12.89-1,7.54-1.07,7.53-8.9,7.54q-41.22.09-82.43.18c-5.89,0-6.42.67-5.74,6.32q.81,6.69,1.54,13.39c.76,7.08.74,7.09,8,7.1,26.14,0,52.29.18,78.43,0,4.86,0,6.06,1.67,5.52,6.15-.87,7.27-1.46,14.57-1.94,21.87-.25,3.9-2.11,5.62-5.74,7-15.34,5.89-30.58,7.13-46,.54a10.74,10.74,0,0,0-2.9-.73c-4.52-.53-6.06-3.37-6.23-7.55-.14-3.66-.68-7.29-.85-10.95-.14-3.23-1.89-4.32-4.84-4.31-6,0-12,.11-18-.11-3.68-.14-5,1-4.58,4.87,1,10.43,1.77,20.89,2.41,31.35.28,4.69,2.43,7.1,7,8.31,15.45,4.08,30.83,8.44,46.22,12.74a9.61,9.61,0,0,0,5.37.07c16-4.43,32.09-8.86,48.19-13.09,3.52-.92,4.77-2.75,5.05-6.26,1.29-16.42,2.82-32.82,4.25-49.23,2.19-25,4.32-50,6.61-75.07.4-4.36-1-5.82-5.46-5.78C190.28,75.06,170.13,74.94,150,75Z" transform="translate(-43.9 -30.08)"/></svg>