<svg id="Capa_1" data-name="Capa 1" xmlns="http://www.w3.org/2000/svg" viewBox="0 0 175.01 262.34"><path d="M196.49,106.3a61.38,61.38,0,0,1,10.21,2,43.75,43.75,0,1,1-56.27,48.13,7.89,7.89,0,0,0-.52-2.06v1.54q0,41,0,82a43.67,43.67,0,0,1-86.55,7.93C58.61,222.57,74.53,199,97.78,194.72c1.67-.31,3.34-.54,5-.93-2.4-.41-4.8-.75-7.16-1.33A43.71,43.71,0,0,1,100,106.8c.76-.1,1.52-.17,2.28-.25,1.47.4,2.92-.12,4.39-.11,13.73,0,27.47,0,41.2,0,.67,0,1.34.06,2,.09v38.93a5.92,5.92,0,0,0,.55-1.91,43.95,43.95,0,0,1,40.3-37.22Z" transform="translate(-62.49 -18.83)"/><path d="M196.49,106.3l-5.74.06-39.94-.07c-.32,0-.68-.08-.91.27-.66,0-1.33-.09-2-.09-13.73,0-27.47,0-41.2,0-1.47,0-2.92.51-4.39.11,0-.81-.66-.52-1-.55-19.72-2-36-18.13-38.39-37.89A43.63,43.63,0,0,1,97.8,19.68a41.37,41.37,0,0,1,8.53-.8l87-.05a43.72,43.72,0,0,1,43.15,34.58c5.42,24.11-11.26,48.53-35.74,52.32C199.33,105.94,197.91,106.11,196.49,106.3Z" transform="translate(-62.49 -18.83)"/></svg>