<svg id="Capa_1" data-name="Capa 1" xmlns="http://www.w3.org/2000/svg" viewBox="0 0 219.18 240.16"><path d="M259.42,211.11c-2.65-.87-4.23-1.24-5.69-1.89-33-14.63-66.12-29.2-99.07-44.07-4.27-1.92-7.58-1-11.33.64q-45.56,20.52-91.17,40.94c-11.47,5.16-11.65,5.08-11.6-7.42,0-10,.27-20-.12-30-.22-5.76,2.16-8.85,7.23-11.05C71.51,147.9,95.24,137.31,119,126.85c9.14-4,18.23-8.21,27.56-11.72a13.17,13.17,0,0,1,9,.5c31.3,13.62,62.48,27.55,93.73,41.32,9.81,4.32,10.19,4.74,10.16,15.62,0,10.66,0,21.33,0,32Z" transform="translate(-40.43 -30.11)"/><path d="M259.45,101.24v17c0,7.73-1,8.54-7.95,5.49Q220.44,110,189.44,96.12c-12.31-5.49-24.59-11.06-37-16.38a7.65,7.65,0,0,0-5.51.06q-39.7,17.61-79.3,35.49c-6.53,2.93-13,6-19.61,8.76-5.65,2.39-7.44,1.22-7.47-4.73-.07-12.16.06-24.32-.06-36.47,0-4.06,1.71-6.51,5.34-8.09,33.74-14.67,67.42-29.45,101.22-44a11,11,0,0,1,7.92.1c32.48,14.21,64.82,28.74,97.3,43,5.1,2.23,7.73,5,7.26,10.88C259.11,90.22,259.45,95.74,259.45,101.24Z" transform="translate(-40.43 -30.11)"/><path d="M149.55,245.88c0-6.48.11-13,0-19.46-.07-3.27,1.2-5.34,4.15-6.63,10.81-4.74,21.5-9.78,32.46-14.15a13.82,13.82,0,0,1,9.49.1c14.73,6.14,29.27,12.75,43.8,19.33,1.34.61,3.37,2.85,3.18,3.15-1,1.67-2.4,3.53-4.12,4.3-21.38,9.62-42.83,19.07-64.27,28.55-6.39,2.82-12.79,5.61-19.18,8.42-3.76,1.66-5.6.77-5.5-3.64C149.67,259.19,149.55,252.54,149.55,245.88Z" transform="translate(-40.43 -30.11)"/></svg>