<svg id="Capa_1" data-name="Capa 1" xmlns="http://www.w3.org/2000/svg" viewBox="0 0 212.98 240.66"><path d="M150.05,29.52q49.76,0,99.5,0c6.69,0,7.35.43,6.8,7.11-1.35,16.74-3,33.46-4.53,50.19-1.49,16.56-2.91,33.13-4.4,49.7-1.89,21-3.84,42.07-5.72,63.11-1.15,12.92-2.34,25.84-3.26,38.78-.55,7.71-1.17,8.76-8.42,10.76-23.6,6.49-47.22,12.9-70.76,19.59a32,32,0,0,1-18.13.18q-36-10.24-72.21-20c-5.06-1.36-6.94-4.14-7.36-9.12-2.13-25.35-4.51-50.69-6.74-76-1.8-20.55-3.47-41.11-5.3-61.65-1.84-20.71-3.8-41.4-5.71-62.1-.07-.83-.14-1.66-.18-2.49-.4-7.58,0-8.06,7.42-8.06Zm66.37,46.36c-1.88-.2-3.17-.44-4.45-.46-22.81-.34-45.62-.85-68.43-.92-18,0-35.95.56-53.93.65-4.21,0-5.68,1.55-5.21,5.63.76,6.6,1.36,13.23,1.94,19.86,1.4,16.06,2.74,32.14,4.11,48.21.26,3.09,1.53,4.77,5,4.74,19.16-.11,38.32-.06,57.48-.06l25.89,0c2.63,0,4.69.56,4.34,3.91-1,9.25-1.66,18.55-3.08,27.74-.31,2-2.93,4.44-5,5.11a104.49,104.49,0,0,1-18.41,4.47,59.2,59.2,0,0,1-16.12,0c-5.55-.8-10.91-3-16.38-4.36-3-.77-4.59-2.24-4.68-5.5-.12-3.82-.82-7.61-.92-11.43-.1-3.49-1.38-5.23-5.08-5.13-5.49.15-11,.13-16.49,0-3.87-.09-4.8,1.64-4.4,5.28,1.08,9.75,2.07,19.52,2.64,29.3.26,4.39,2,6.58,6.14,7.72,14.63,3.94,29.17,8.18,43.78,12.17a13.09,13.09,0,0,0,6.34.42c15.77-4.12,31.54-8.26,47.15-12.95,2.39-.72,5-4,5.63-6.56,1.18-4.6.91-9.56,1.32-14.37,1.43-16.73,2.67-33.49,4.43-50.19,1.14-10.87,1.5-10.83-9.26-10.83q-38.73,0-77.47,0c-6.91,0-7.27-.19-8.26-7.05-.75-5.26-.85-10.62-1.54-15.89-.57-4.34,1.42-5.67,5.35-5.64,6.33,0,12.66-.09,19-.1h70.48c2.51,0,5.16.36,5.57-3.31C214.69,89.61,215.55,82.91,216.42,75.88Z" transform="translate(-43.52 -29.52)"/></svg>