<svg id="Capa_1" data-name="Capa 1" xmlns="http://www.w3.org/2000/svg" viewBox="0 0 238.11 261.13"><path d="M88,19.33q26,0,51.91,0c5.84,0,6.39.59,5.87,6.31-3.25,35.92-6.57,71.84-9.75,107.76-.27,3-1.62,4.43-4.36,5.18-13.31,3.65-26.6,7.39-39.9,11.07a13.69,13.69,0,0,1-7.4-.16c-13-3.59-25.95-7.24-39-10.71-3.31-.88-4.53-2.86-4.8-6-1.11-13.08-2.32-26.15-3.49-39.23C35.26,72.34,33.51,51.14,31.42,30c-1.06-10.67-1.33-10.64,9.2-10.64Zm8.5,38.74c5.82,0,11.65,0,17.47,0,11.86.1,8.81-.12,10.59-9.61.62-3.32-.56-4.53-3.87-4.53q-32.16.11-64.32,0c-3.29,0-4.38,1.25-4.06,4.52q1.59,16.38,2.83,32.78c.31,4.22,1.74,6.05,6.44,5.93,13.13-.35,26.29-.15,39.43-.09,2,0,4.91-.76,4.71,2.72-.25,4.47-.92,8.92-1.45,13.37-.25,2.1-1.64,3.09-3.58,3.64-7.76,2.18-15.36,3.6-23.4.48-3.76-1.46-5.62-3.17-5.31-7.08.39-4.84-1.92-6.64-6.56-6.1a26.91,26.91,0,0,1-4.49,0c-3-.12-4.2,1.36-3.94,4.29.41,4.64.93,9.27,1,13.92.08,3.6,1.74,5.25,5.07,6.31,23.69,7.56,23.67,7.6,47.76.65a2.09,2.09,0,0,1,.49-.13c5.58-.5,7.31-3.85,7.62-9.11.62-10.61,1.58-21.22,2.79-31.78.55-4.81-1.2-6-5.69-6.09-13.46-.33-26.9.83-40.37.22-4.3-.19-6.12-1.51-6-5.73a22.4,22.4,0,0,0-.52-3.95c-.57-3.46.83-4.79,4.36-4.72C81.23,58.19,88.89,58.07,96.54,58.07Z" transform="translate(-30.93 -19.32)"/><path d="M211.38,150.1h50.91c6.82,0,7.13.14,6.55,7.09-1.7,20.38-3.61,40.74-5.43,61.1-1.22,13.74-2.48,27.48-3.57,41.23-.66,8.3-.52,8.33-8.3,10.51-11.37,3.19-22.77,6.27-34.1,9.57a19.74,19.74,0,0,1-11.27.06c-12.17-3.44-24.34-6.86-36.55-10.11-3.73-1-5.39-2.8-5.74-6.85q-4.6-53.4-9.68-106.77c-.41-4.37.71-6,5.26-5.91C176.76,150.22,194.07,150.1,211.38,150.1Zm.18,24.12c-10.15,0-20.3,0-30.45,0-1.62,0-3.9-.52-4.56,1.17-1.43,3.7-.53,7.58.47,11.26.86,3.16,3.78,2.15,5.92,2.16,13.15.08,26.3,0,39.45,0,9.41,0,9.24,0,8.63,9.24-.25,3.88-1.85,5.15-5.59,5.12-12.48-.12-25,0-37.44,0-10,0-9.74,0-9.17,9.84.24,4,1.77,5.07,5.48,5,12-.15,24-.1,35.95,0,7.95,0,9.74-1.56,7.95,8.47a16.58,16.58,0,0,0-.21,4c.26,3.95-1.58,5.75-5.32,7.13-7.63,2.82-14.83,2.19-22.4-.17-3.86-1.21-5.79-2.85-5.36-6.88.51-4.82-1.92-6.63-6.45-6.42-1.49.07-3,.06-4.49,0-3.31-.15-4.92.85-4.33,4.66a117.54,117.54,0,0,1,1.24,14.4c.12,3.45,1.83,4.73,4.87,5.88,16,6.1,32,8.17,48.25.8a11.46,11.46,0,0,1,2.89-.79c3.33-.52,4.7-2.45,5-5.79,1.65-20.88,3.45-41.75,5.15-62.63.5-6.07.21-6.41-6-6.46C231.2,174.17,221.38,174.23,211.56,174.22Z" transform="translate(-30.93 -19.32)"/></svg>