<svg id="Capa_1" data-name="Capa 1" xmlns="http://www.w3.org/2000/svg" viewBox="0 0 195.54 195.68"><path d="M52.29,150c0-19.64.25-39.29-.07-58.92-.29-18.41,15.93-38.24,37.7-38.56,40.78-.59,81.57-.35,122.36-.11,18.28.11,34,16.53,34.6,34.88,1.3,39.43.77,78.88.77,118.32,0,11.71-2.18,22.78-11.16,31.55a35.55,35.55,0,0,1-25.63,10.54c-40.62.11-81.24.24-121.85,0-21.56-.15-36.78-16.2-36.73-37.74q0-15,0-30T52.29,150Zm83.25-40c-10.6,0-10.6,0-13.35,9.77-.27,1-.57,1.92-.89,2.86q-10.6,30.93-21.23,61.86c-4.52,13.16-4.5,13.14,9.36,12.51,3.38-.15,5.19-1.57,6.09-4.72,1.14-4,2.55-7.92,3.69-11.92.86-3,2.61-4.31,5.81-4.23,5.32.15,10.65.06,16-.06,9-.2,9.5.26,12,9,4.2,14.44,3.14,11.68,15.74,11.89,6.9.12,7.32-.54,5-7.17q-11.9-34.71-23.9-69.39C145.68,108.1,147.88,110.14,135.54,109.91Zm48.34,53.54c0,7.16-.06,14.32,0,21.48.13,13.2-1.82,11.73,12,12,4.46.08,6.19-1.31,6.12-6-.23-15.81,0-31.63-.11-47.44-.1-14.26,2.12-12.32-12.84-12.66-4.33-.1-5.39,1.7-5.3,5.65C184,145.48,183.87,154.47,183.88,163.45ZM203,113.68c0-6.38-4-10.58-10.1-10.5S183,107.62,183,114s3.8,10.08,9.87,10.13S203,120.12,203,113.68Z" transform="translate(-52.22 -52.1)"/><path d="M135.84,128.58c2.86,9.28,5.75,18.55,8.55,27.85.5,1.67-.58,2.54-2.15,2.56q-6.72.1-13.43,0c-2.53,0-3.13-1.69-2.53-3.75,2.6-8.88,5.3-17.73,8-26.59Z" transform="translate(-52.22 -52.1)"/></svg>