<svg id="Capa_1" data-name="Capa 1" xmlns="http://www.w3.org/2000/svg" viewBox="0 0 210.09 210.29"><path d="M45.06,150q0-49.2,0-98.41c0-6.62,0-6.65,6.63-6.66q98.42,0,196.83-.1c5,0,6.54,1.35,6.53,6.46q-.24,98.67,0,197.33c0,5.05-1.44,6.52-6.49,6.51q-98.66-.22-197.32,0c-4.75,0-6.31-1.35-6.28-6.2C45.15,216,45.06,183,45.06,150ZM205,140c-14.5,0-25.32,7.13-28.58,18.91-3.67,13.25,1.64,25.57,14.33,32.93,3.16,1.83,6.53,3.3,9.82,4.89,4.49,2.18,9.35,3.57,13.41,6.61,3.05,2.26,4.63,5.17,4,9.06s-3.36,6-6.82,7.22c-7.45,2.63-16.87.33-21.62-6.22-3.16-4.35-5.57-4.08-9.68-1.55-11.4,7-11.69,9.88-.71,18.27,9.82,7.5,21.08,9.1,33.1,7.85,12.51-1.3,22.56-9,25.4-20,3.12-12.05-1.59-24.2-12.22-31.32C220,183,214,180.55,208.06,177.9a62.24,62.24,0,0,1-8.85-4.58,8.06,8.06,0,0,1-3.58-9.55c1.1-3.92,4-5.47,7.82-5.83,3.49-.32,7.29,0,9.19,2.8,4,5.83,7.69,3.94,11.86.64a26.74,26.74,0,0,1,4.23-2.64c3.75-1.92,3.39-4.26,1.11-7.18C223.49,143.44,215,140.07,205,140Zm-46,39.78h.11v-26c0-12.85,0-12.85-13-12.79-7,0-7,0-7,6.89,0,20.64,0,41.29,0,61.93,0,4.21-1,8.15-5.46,9.72-4.72,1.65-9.25,1.14-12.86-2.73-5.52-5.91-5.48-5.94-12.33-1.79-1.28.77-2.52,1.64-3.86,2.29-4.1,2-4.07,4.55-1.66,8,6.15,8.76,14.78,12.72,25.15,13,16.69.51,30.77-6.86,31-27.6C159.09,200.46,159,190.14,159,179.82Z" transform="translate(-44.96 -44.85)"/></svg>