<svg id="Capa_1" data-name="Capa 1" xmlns="http://www.w3.org/2000/svg" viewBox="0 0 239.96 207.15"><path d="M30.06,108.32c0-17.32,0-34.64,0-52,0-9.64,4.69-12.38,13.05-7.6,22,12.56,44,25.08,65.8,37.9,5,2.92,9.07,2.75,13.91-.07,21.86-12.76,43.84-25.32,65.79-37.92,8.1-4.65,13-2.15,13,7.29.18,34.65.07,69.29.07,103.94,0,4.81-2.29,8.05-6.49,10.39-10.77,6-21.45,12.14-32.1,18.34-8.26,4.81-8.18,9.84.1,14.53,5.36,3,10.79,6,16,9.17a8.82,8.82,0,0,0,9.85.14q20.55-11.86,41.16-23.62c3.57-2,5-5,5-9.06-.13-10.66.09-21.32-.08-32-.1-5.59,1.87-9.45,7-12,5.36-2.65,10.4-5.95,15.61-8.93,6.87-3.92,12.07-1.14,12.09,6.64.08,22.15,0,44.31.07,66.46,0,4.14-1.76,6.86-5.28,8.88q-37.49,21.48-74.91,43.11a9.87,9.87,0,0,1-10.79,0q-29-16.68-58.12-33.22a8.92,8.92,0,0,1-5-8.48c0-10.32-.15-20.64-.36-31-.07-3.13,2-4.3,4.24-5.55,13.87-7.95,27.68-16,41.65-23.77,4-2.21,5.76-4.82,5.59-9.48-.32-8.48,0-17,0-25.48,0-8.7-4.82-11.42-12.32-7.11-11,6.3-22,12.53-32.87,19-4.05,2.41-7.69,2.45-11.7.1q-16.38-9.6-32.88-19c-8-4.55-12.34-2-12.36,7.17,0,18.49,0,37,0,55.47,0,10.52-4.74,13.18-13.88,7.92-5.2-3-10.34-6.09-15.62-8.92-3.84-2.05-5.31-5-5.28-9.33C30.14,143,30.06,125.65,30.06,108.32Z" transform="translate(-30.01 -46.38)"/><path d="M269.94,65.51c-.28,19,2.53,14.51-14.05,24.71-3,1.83-5.93,3.71-9,5.25-5.19,2.57-9.68.52-10.28-5.13a155.59,155.59,0,0,1-.1-25.36c.16-2.78,1.89-4.82,4.38-6.27,5.88-3.42,11.63-7.08,17.54-10.44,6.62-3.76,11.4-.9,11.54,6.78C270,58.54,269.94,62,269.94,65.51Z" transform="translate(-30.01 -46.38)"/></svg>