<svg id="Capa_1" data-name="Capa 1" xmlns="http://www.w3.org/2000/svg" viewBox="0 0 195.44 195.65"><path d="M150.28,52.29h60.44c21,0,36.89,15.3,36.9,36.38,0,22.8,0,45.6-.26,68.4-.18,17.44.24,34.93.31,52.4.09,23-15.25,38.22-38.22,38.24-39.62,0-79.25-.37-118.87.14-24.2.32-38.45-18.93-38.35-38.35.21-40.13.07-80.25.05-120.37,0-17.81,18.4-37.28,37.07-36.92C109.66,52.6,130,52.29,150.28,52.29ZM91.92,149.11c0,10.66,0,21.32,0,32,0,14-.63,11.45,11.72,11.87,4.49.15,6.45-1.47,6.31-6-.17-5.49.08-11-.06-16.49-.09-3.44,1.34-4.73,4.73-4.74,3.82,0,7.65-.4,11.45-.77,16.06-1.6,26.68-13,26.92-28.77.26-16.32-9.74-27.86-25.85-30.27-9.83-1.47-19.59-.13-29.39,0-4.27,0-6,1.44-5.89,5.81C92.05,124.13,91.93,136.63,91.92,149.11ZM188,126c-2.17,0-4.34-.13-6.49,0-9.94.69-17.79,7.06-20,16.09-1.95,8.16,2.1,16.59,10.72,21.68,3,1.77,6.3,3,9.45,4.51,1.8.86,3.63,1.66,5.35,2.66s3.1,2.22,2.72,4.36c-.42,2.37-2.45,3.11-4.45,3.38A38.64,38.64,0,0,1,171,177.64c-3.11-.76-6.29-4.69-9-2.28-2.56,2.24-.54,6.65-.95,10.08-.47,4,1.55,6.36,5.36,7.11,4.41.87,8.83,2,13.28,2.18,6.69.26,13.31-.68,19.2-4.34,12.33-7.67,12.63-25.19.3-32.85-5.06-3.14-10.72-5.31-16.09-7.95-2.13-1-4.48-2.17-4-5.05.56-3.16,3.35-3.32,5.86-3.51a29.58,29.58,0,0,1,9.41.8c10.77,2.71,10.67,2.67,10.59-8.62,0-3.71-1.66-5.4-5.05-6.22A44.14,44.14,0,0,0,188,126Z" transform="translate(-52.23 -52.2)"/><path d="M109.27,135.47a4.36,4.36,0,0,1,0-1.49c1.57-4-3.92-11,4.35-11.93,12.65-1.4,20.07,2.56,21.3,10.33,1.38,8.66-2.64,14.64-11.09,16.53C110.32,152,109.27,151,109.27,135.47Z" transform="translate(-52.23 -52.2)"/></svg>