<svg id="Capa_1" data-name="Capa 1" xmlns="http://www.w3.org/2000/svg" viewBox="0 0 194.82 195.56"><path d="M247.87,149.49q0,30,0,59.93c0,22.81-15.47,38.26-38.19,38.26q-59.67,0-119.32,0c-18.75,0-31.84-10.44-36.51-28.58a31.17,31.17,0,0,1-.76-7.92q0-59.43,0-118.86c0-23.51,16.42-40,39.9-40.09q59.16-.15,118.32,0c20.78,0,36.49,15.94,36.54,36.87C247.92,109.21,247.87,129.35,247.87,149.49ZM95,150.19c0,10.47-.05,20.95,0,31.42.08,13.52-1.82,12.15,12.8,12.27,3.62,0,5.17-1.53,5.15-5,0-5.66.15-11.31,0-17-.12-3.57,1.34-5.27,4.83-5.41,3.31-.15,6.63-.27,9.94-.51,16.32-1.18,27.8-12.55,28.31-28,.55-16.94-9.12-28.42-25.92-31.06-10.11-1.59-20.24-.38-30.35-.56-3.68-.06-4.8,2-4.77,5.45C95.11,124.59,95.05,137.39,95,150.19Zm89.72-15.81c-3-7.37-3-7.16-12.45-7.34-4.75-.09-6.41,1.49-6.32,6.31.27,16,.16,31.93.19,47.89,0,13.83-1.19,12.49,13.16,12.67,4.31.06,5.95-1.55,5.86-5.85-.21-9.81-.13-19.62-.15-29.44,0-9.52,1.27-10.94,10.45-13.3,3.25-.83,7.56,1.22,9.66-2.47,1.76-3.09.29-6.87.64-10.32,0-.33,0-.67,0-1,0-5-1.53-6.25-6.41-5.24C193.9,127.43,189.39,130.55,184.76,134.38Z" transform="translate(-53.07 -52.14)"/><path d="M138.14,135.93c-.08,7.44-3,11.36-9.61,13.36a38.28,38.28,0,0,1-5.34,1.09c-9.53,1.42-10.27.79-10.18-8.56,0-4.95-1.05-9.89,0-14.86.35-1.7.65-3.12,2.52-3.87,5.22-2.1,16.29.42,19.91,4.64A11.34,11.34,0,0,1,138.14,135.93Z" transform="translate(-53.07 -52.14)"/></svg>