<svg id="Capa_1" data-name="Capa 1" xmlns="http://www.w3.org/2000/svg" viewBox="0 0 251.86 251.51"><path d="M148.51,80.65c-1.87-.1-3.81-.29-5.76-.29-15.49,0-31,0-46.47,0-6.45,0-6.66-.25-6.69-6.84,0-6.33.13-12.66,0-19-.2-7.3,3-12.75,8.5-17.21,7.85-6.42,17-9.66,26.91-11,18.91-2.65,37.83-3.17,56.52,1.44a64.38,64.38,0,0,1,15.69,6.23c8.91,5,13.61,12.49,13.4,23.27-.4,20.32-.08,40.65-.13,61,0,16-10.8,27.05-27,27.19-21.65.2-43.31,0-65,.07-23,0-38.14,15.27-38.17,38.27,0,7.16-.08,14.32,0,21.48,0,3.81-1.59,5.4-5.44,5.3-6.32-.16-12.67-.32-19,0-8.55.49-14.72-3.4-19.68-9.77-6.69-8.58-9.06-18.79-10.53-29.25-2.5-17.77-2.46-35.57,2.13-52.94a71.93,71.93,0,0,1,9.36-20.13c4-6.29,10.65-9,18.5-8.92,28.48.2,57,.1,85.45.09C150.8,89.58,149.29,90,148.51,80.65ZM127.62,52.28c.08-6-3.77-10-9.84-10.1-6.31-.12-10.57,3.91-10.55,10a10.33,10.33,0,0,0,9.89,10.39A10.21,10.21,0,0,0,127.62,52.28Z" transform="translate(-24.06 -24.24)"/><path d="M151.64,210.41c-1.06,8.93-.82,9.24,6.84,9.24,15,0,30,0,45,0,6.33,0,6.93.65,7,6.8,0,5.83-.18,11.67.06,17.5.37,8.86-3.6,15.34-10.51,20.34-7.75,5.61-16.64,8.52-26,9.67-18.58,2.3-37.21,2.93-55.58-1.67a65.52,65.52,0,0,1-14.39-5.52c-9.75-5.14-14.9-12.94-14.61-24.61.51-19.81.13-39.66.15-59.49,0-17.24,10.74-28,28.11-28.08,21-.08,42-.27,63,0,26.55.38,40.28-20.08,39-38.56-.42-6.31-.06-12.66-.06-19,0-6.95.52-7.49,7.27-7.51,5.66,0,11.34.21,17-.08,8.9-.44,15.33,3.62,20.36,10.47,6.23,8.45,8.61,18.31,10,28.45,2.42,17.77,2.54,35.56-2.08,53a72.37,72.37,0,0,1-8.71,19.39c-4.19,6.69-10.93,9.76-19.16,9.72-28.83-.16-57.66-.08-86.49-.1Zm31.08,47.41c6.22-.09,10.21-4.23,10.07-10.46a10.18,10.18,0,0,0-20.36.27C172.42,253.88,176.48,257.9,182.72,257.82Z" transform="translate(-24.06 -24.24)"/></svg>