<svg id="Capa_1" data-name="Capa 1" xmlns="http://www.w3.org/2000/svg" viewBox="0 0 270.76 241.67"><path d="M66.1,226.92c1-7.07,1.81-15.7,3.55-24.14,1-4.91-.16-6.64-4.83-8.65a335.52,335.52,0,0,1-32-16.1c-4.08-2.29-7.54-6.06-10.58-9.73C11.56,155.41,12,142,23.6,129.71c10.33-11,23.57-17.19,37.47-22.2,9.8-3.53,9.72-3.49,7.83-13.57-2.57-13.68-3.64-27.44-.15-41.1,2.7-10.57,7.38-20.24,19.34-22.37a46.51,46.51,0,0,1,18.67.88c12.81,3.17,23.59,10.59,33.83,18.72.92.73,1.79,1.5,2.68,2.25,6.9,5.91,6.8,5.79,13.55.11,12.72-10.7,26.18-20.07,43.09-23,11.42-2,21.89,2.88,27.21,13.14,6.19,11.95,7,24.89,5.88,38a160,160,0,0,1-3,19.7c-.71,3.33.48,4.34,3.22,5.45,8.78,3.55,17.65,7,26.09,11.24s16,10.16,21.36,18.36c6.39,9.77,6.13,19.52-.06,29.47-5.73,9.2-14.46,14.58-23.5,19.43a168.67,168.67,0,0,1-21.95,9.5c-4.24,1.54-5.14,3.52-4.24,7.78,3.19,15.28,4.36,30.73.27,46-2.19,8.21-5.47,16.08-13.93,20.31-7,3.48-14.24,3.45-21.44,1.83-15.41-3.47-27.79-12.52-39.53-22.54-5.59-4.77-5.74-4.83-11.57.09-12.2,10.29-25.18,19.32-41.16,22.59-7.59,1.55-15.25,1.48-22.24-2.86-8.92-5.54-11.47-14.71-13.48-24C66.8,238.21,66.75,233.32,66.1,226.92Zm83.56-34c6.75-.37,13.75-.51,20.67-1.28,2.13-.24,4.91-1.67,6-3.42q10.33-17.07,19.89-34.6a8.43,8.43,0,0,0,.15-6.93c-6.44-11.83-13.2-23.49-20.12-35a7.26,7.26,0,0,0-5.06-3.2q-20.91-.41-41.83,0a7.87,7.87,0,0,0-5.55,3.37c-6.86,11.4-13.52,22.92-19.84,34.62a9,9,0,0,0,0,7.34q9.45,17.3,19.77,34.1a9.7,9.7,0,0,0,6.3,3.85C136.43,192.51,142.94,192.56,149.66,192.92ZM74,183.31c4.27-10.74,8.38-20.89,12.27-31.12a7.45,7.45,0,0,0-.16-4.84c-3.37-9-6.83-18-10.54-26.94-.48-1.15-2.86-2.58-3.87-2.27-13.61,4.16-26.75,9.37-37.19,19.51-8.35,8.1-8.54,16.8-.08,24.65C45.58,172.68,59,179.09,74,183.31Zm9.79,16.76c-.68,3-1.48,5.91-2,8.84-2.06,12.51-3.46,25.07.51,37.47,3.06,9.51,9.33,13,19,10.45,14.52-3.84,26.62-12,37.25-22.33.85-.82.85-3.76.06-4.81-5.82-7.7-11.9-15.2-18-22.64a7.22,7.22,0,0,0-4-2.52C105.89,202.94,95.19,201.59,83.77,200.07Zm137.44,26c-1.09-7.36-2.29-15.05-3.36-22.76-.44-3.17-1.81-4.11-5.08-3.5-8,1.47-16.11,2.28-24.06,3.93-3.35.7-7.27,2.05-9.44,4.45-6.1,6.78-11.51,14.19-17,21.52-.75,1-.85,3.74-.09,4.47,10.53,10.11,22.09,18.73,36.48,22.56,10,2.65,17.12-1.46,19.58-11.51C219.78,239.16,220.22,232.82,221.21,226.08ZM140.41,67.75c-11.21-10.53-23.08-19.84-38.07-24-11.68-3.25-18.28.72-20.79,12.7C78.64,70.34,80,84.27,83.46,98c.27,1.05,3,2.3,4.35,2.13,8.25-1,16.46-2.35,24.65-3.8,2.53-.44,5.83-.82,7.27-2.51C126.81,85.45,133.4,76.68,140.41,67.75Zm80.12,4.79c-1-6.28-1.37-13.17-3.28-19.6-2.74-9.24-8.8-12.22-18.17-9.79-14.42,3.73-25.92,12.44-36.69,22.27-2.59,2.36-1.21,4.34.48,6.44,5.43,6.73,10.65,13.62,16.23,20.21a11.27,11.27,0,0,0,6,3.63c8.8,1.71,17.72,2.75,26.51,4.49,3.75.75,5.35-.42,5.82-3.87C218.43,88.6,219.43,80.88,220.53,72.54Zm-7.14,77.11a13.67,13.67,0,0,0,.46,2c3.81,9.57,7.59,19.16,11.59,28.65a3.84,3.84,0,0,0,3.42,1.47c15.49-4.68,29.78-11.46,40.39-24.25,3.55-4.28,4.06-9.15,1-13.87a36.49,36.49,0,0,0-6.48-7.49c-9.82-8.6-21.63-13.51-33.81-17.69-2.95-1-4.57-.15-5.69,2.83-3.16,8.4-6.58,16.7-9.87,25.05C214,147.44,213.72,148.58,213.39,149.65Zm-49,56.32H136.24l14.27,16.94ZM192.1,188.6l.69,1.48c6-1.14,11.91-2.18,17.81-3.53a3.41,3.41,0,0,0,1.63-2.9c-2-5.85-4.22-11.61-6.74-18.36ZM94.82,165.83c-2.48,6.83-4.61,12.35-6.4,18-.3.93.69,3.23,1.38,3.36,6.18,1.21,12.42,2.07,19.28,3.13Zm69.46-71.55c-4.75-5.65-8.51-10.26-12.5-14.67a3.38,3.38,0,0,0-3.29.08c-4,4.49-7.83,9.18-12.36,14.59Zm41.08,40L213,113.84,191.23,110Zm-118-20.57c2.49,6.9,4.74,13.12,7.45,20.6,4.6-8,8.42-14.52,12.2-21.12a23.9,23.9,0,0,0,1.1-3.21Z" transform="translate(-14.57 -29.02)"/><path d="M150,174.45c-14,0-25.08-10.8-24.66-24.61.48-15.84,9.78-24.29,24.74-25,13.29-.64,25,11.48,25,24.67A24.8,24.8,0,0,1,150,174.45Z" transform="translate(-14.57 -29.02)"/></svg>