<svg id="Capa_1" data-name="Capa 1" xmlns="http://www.w3.org/2000/svg" viewBox="0 0 255.07 241.86"><path d="M90.32,121.17c.41,21.4,4.72,39.51,13.46,56.57,1.87,3.66,4,5.76,8.62,6.14,10.46.87,17.68,11.41,15.89,22.11-1.65,9.88-12.59,17.16-22.51,15-10.41-2.29-17.31-13.11-14.38-23.14a10.68,10.68,0,0,0-1.1-8.91,136.72,136.72,0,0,1-17.44-69.43c.49-24.87,7.79-47.61,24.07-66.8,12.85-15.15,29.8-22.92,49.44-23.74,12.79-.54,24.54,4,35,11.41,18.85,13.34,27.39,32.76,31.93,54.5.67,3.24.85,6.59,1.42,9.87.74,4.23-.92,5.13-4.71,3.82a58.79,58.79,0,0,0-7.7-2.09c-3.64-.74-5.31-2.86-5.74-6.5-1.42-12.15-6-23.12-12.8-33.23-19.7-29.46-50.67-23.34-69.61-6.9C99.65,72.46,94,90,91.44,108.53,90.76,113.46,90.55,118.46,90.32,121.17Z" transform="translate(-22.46 -28.91)"/><path d="M165.67,260.28c5-4.16,8.48-8.09,12.86-10.44,2.46-1.32,6.54-.74,9.5.2,12.09,3.84,24.18,5.9,36.8,2.89,27.85-6.67,42.43-34,32.33-60.74-7.72-20.43-22.11-34.93-40.62-45.77-19-11.11-39.49-16.5-61.39-17a9,9,0,0,0-8,3.83,18.59,18.59,0,0,1-27.4,2.33c-7.74-7.37-8-20.22-.5-27.36,8.26-7.9,20.79-6.94,28.37,1.74,1.44,1.65,4.58,2.57,6.93,2.56a137.13,137.13,0,0,1,70.15,18.47c21.88,12.63,38.73,29.9,47.81,53.71,8.76,23,6.48,44.91-9.43,64.33-3.27,4-8.18,6.77-12.66,9.6-24,15.16-49.32,15.07-75.26,5.8C172.35,263.39,169.71,262.05,165.67,260.28Z" transform="translate(-22.46 -28.91)"/><path d="M61.32,141.71c1.36,5.06,3.12,9.77,3.68,14.62.21,1.8-2.09,4.3-3.81,5.84-10.65,9.59-18.8,20.69-22.08,34.89C33.05,223.31,52,249,78.81,251.72c31.75,3.21,57.64-9.07,80.06-29.94,7.94-7.39,14.29-16.48,21.25-24.89,2.07-2.51,2.09-5,.25-8.16a18.56,18.56,0,0,1,7.21-25.82,18.76,18.76,0,0,1,25.92,8.35c4.79,9.89.91,21.11-9.34,25.42a16.27,16.27,0,0,0-8.45,7.85C174.2,243.79,139.87,263.89,96.48,269c-21.61,2.54-41.83-2.78-58-18.54-10.29-10-14.82-22.91-15.78-36.84C20.61,183.86,34,161.35,56.79,143.54a12.52,12.52,0,0,1,2.12-1.32A14.08,14.08,0,0,1,61.32,141.71Z" transform="translate(-22.46 -28.91)"/></svg>