<svg id="Capa_1" data-name="Capa 1" xmlns="http://www.w3.org/2000/svg" viewBox="0 0 274.57 150.03"><path d="M232.48,149.54c0,13.08-8.74,23.11-22.75,25.74-5.22,1-10.57,1.2-15.82,2-8.44,1.26-12.58,5.69-14.65,14.09-1.69,6.88-3.13,14.11-6.45,20.24-5.67,10.46-18.7,15.54-28.49,12.55-12.44-3.81-19.84-13.5-19.73-25.82.11-11.7,7.92-21.38,20.4-24.58a102.79,102.79,0,0,1,14.78-2.14c15.09-1.58,19.72-6.44,19.67-22.42a34.4,34.4,0,0,0-1.24-7.88c-2.11-8.94-8-13.14-18.28-13.94a81.69,81.69,0,0,1-17.16-2.75c-12.18-3.68-18.67-13.5-18.15-26.11.42-10.26,8.63-20.12,18.87-22.66,12.1-3,24.24,1.77,29.86,12.53a50.78,50.78,0,0,1,4.83,15.1c2.35,14.51,6.35,18,21.12,19.27a61.68,61.68,0,0,1,20.09,5C228.2,131.76,232.51,139.62,232.48,149.54Z" transform="translate(-12.76 -74.96)"/><path d="M96.41,174.45a25.3,25.3,0,0,1-25.55-25.19c-.13-13.67,12-25.59,26.06-25.56a25.79,25.79,0,0,1,25.42,25.55C122.29,163.58,111,174.51,96.41,174.45Z" transform="translate(-12.76 -74.96)"/><path d="M38,223.45c-14.74,0-25.78-10.44-25.26-24.92.57-15.9,9.74-24.77,25.48-25.58,13.82-.71,25.73,11.77,25.65,25.76S52.5,223.43,38,223.45Z" transform="translate(-12.76 -74.96)"/><path d="M287.33,199.62c-.16,13-12.77,24.62-26.3,24.28a25.57,25.57,0,0,1-25.22-26.21c.3-13.48,12.12-24.9,25.73-24.87C274.94,172.86,287.5,185.91,287.33,199.62Z" transform="translate(-12.76 -74.96)"/></svg>