<svg id="Capa_1" data-name="Capa 1" xmlns="http://www.w3.org/2000/svg" viewBox="0 0 300 300"><path d="M96.48.9a.08.08,0,0,0,0,0h0Z"/><path d="M118.77,9.51c2.07,1.73,4.28,2.87,7,1.74-.29-4-3.39-2.8-5.64-3.2a1.09,1.09,0,0,1-.69-.05l-3,.12C116.83,9.28,118.24,8.64,118.77,9.51Z"/><path d="M130.29,12.92c-.5-.45-1-.9-1.51-1.34a2,2,0,0,0-2.21.16l2.16,1.55Z"/><path d="M139.45,19a.92.92,0,0,0,.76.38l.13-.05c.6,2.27,2.64,2.55,4.47,3.11a2.07,2.07,0,0,0,.53-.19c.49.62,1.31.76,1.95,1.15a7.75,7.75,0,0,0,2.86,2.19c0,.18.07.35.1.53.79,1.45,2.12,2.42,3.18,3.63,2.47,2.16,5.07,4.18,6.93,7,1.18,1.33,2.55,2.48,3.62,3.91,2.39,3.33,5.23,6.33,7.15,10,.84,1.35,1.52,2.89,3.42,3h0l.54,1.22a1.33,1.33,0,0,0,.56.24c.12.84.23,1.67.35,2.5l2.86,3c.26-2.35-1-4.06-2.29-5.77a1.37,1.37,0,0,0,.18-.16,1.92,1.92,0,0,0-.91-2.07l-.22-.07c0-3.4-2.46-5.59-3.94-8.26-1-1.52-2.37-2.71-3.28-4.29-2.39-2.86-5.17-5.34-7.72-8.05-.85-.72-1.5-1.75-2.79-1.75L151,24.77h0l-1.48-1.4a1.64,1.64,0,0,0-2.21,0c.34-1.29-.37-1.75-1.52-1.88h0c-.66-1.73-2.84-1.58-3.69-3.09l-1.26.07h0c-.48-.52-1-1.05-1.42-1.57-.88.07-2.34-.47-1.42,1.44A1.43,1.43,0,0,1,139.45,19Z"/><path d="M54.45,51.81c-.59.66-2.22,1-.75,2.32a2.69,2.69,0,0,0,1.48-1.57h0c.81-.51,1.51-1.1,1.4-2.21C55.26,49.91,54.86,50.86,54.45,51.81Z"/><path d="M88.71,13.13l-2.09.12c-1,1.15-2.74.13-4.08,1.38l3.36.16,3.53-.12C90.2,13.67,89.83,13.22,88.71,13.13Z"/><path d="M97.54,13.67a2.68,2.68,0,0,0,3.24-.37C99.51,13.42,98.67,12.82,97.54,13.67Z"/><path d="M79.25,15.25c-1.15-.63-1.85.19-2.64.56C77.52,16,78.58,16.61,79.25,15.25Z"/><path d="M110.48,21l4.7,1h0l3.68,1.36c.91,0,1.77,1.06,2.72.15.46,1.55,1.77,1.25,2.9,1.34.94,1,2.24,1.07,3.41,1.47,0-.42,0-.85-.07-1.27l-2.52-.91a4.59,4.59,0,0,0-3.7-.68c-.34-2.15-2.65-1-3.57-2.23l-1.38,0a2,2,0,0,0-1.13-.17C113.89,20.57,112.28,19.73,110.48,21Z"/><path d="M133.63,29.19c.07-1.73-1.33-1.75-2.4-2.15A2.14,2.14,0,0,0,133.63,29.19Z"/><path d="M299.74,175.69A89.43,89.43,0,0,0,297.43,150c-1.28-3.6-1.23-7.67-3.7-10.85-.17-.34-.47.08-.77.23a2,2,0,0,1,.09-.29l-.05-1.36c-.2-3.51-1-6.77-3.62-9.32l-3.23-5.73a3.06,3.06,0,0,1,.1-.38c.35-2.09-1.19-3.43-2-5.08-1.85-3-3.39-6.12-5.62-8.84-.62-.76-1.1-1.62-1.71-2.4-2.93-3.76-6-7.42-9.23-10.9a135.86,135.86,0,0,0-10-9.37c-.74-.64-1.59-1.14-2.34-1.76-2.79-2.29-5.75-4.35-8.71-6.41-1.66-.73-3-2.17-5-2.22l-.18,0C241.23,74,239.8,73.84,239,73c-1.24-.85-2.58-1.5-3.87-2.24-3.28-1.37-6.22-3.66-10-3.77l-2.76-.72-.18.06a.53.53,0,0,0,.11-.72c-1-1.21-2.42-1.43-3.74-1.93a153.71,153.71,0,0,0-15.72-4.61,42.78,42.78,0,0,0-6.15-1c-1.09.06-2.2,0-3,1-.33.78.22,1.15.71,1.54l.68.45c.3.4,0,.7-.14,1a1.75,1.75,0,0,0,.16.87c2.56,2.34,5.89,2.77,9,3.74a9.07,9.07,0,0,0,2.05.65c-.13.15-.24,0-.35,0a26.6,26.6,0,0,1-2.69-.91c-3.33-.46-6.58-1.36-9.92-1.75-.38,0-.76,0-1.14,0-1.5,0-3,0-4.5,0a5.77,5.77,0,0,0-2.09.42c-.36.18-.72.34-1.07.48a15.53,15.53,0,0,0-7.08,0,10.3,10.3,0,0,1-1.08-.49,4.85,4.85,0,0,0-1.54-.39,38,38,0,0,0-4.53,0c-1.6.44-3.48.24-4.47,2.06,0,.38.66.43.51.64s-.17.26-.24.38a4,4,0,0,1-.3-.81c-1.26-.06-2.41.39-2.59,1.67-.15,1.1.94,1.36,1.89,1.4h.32c-.38,1.4,1,1.19,1.75,1.57,1.8.16,3.64-.12,5.39.55a18.38,18.38,0,0,0,3.63.27c3.2.17,6.43-.4,9.6.4a17.34,17.34,0,0,0,3.52.32,13.34,13.34,0,0,1,3.33.43l10.85,2.07a21.3,21.3,0,0,0,3.53.83c.88.09,1.81-.13,2.63.42.31.2.63.38.6.83-.85.79-1-.07-1.29-.59a2.3,2.3,0,0,0-.83-.51,35.94,35.94,0,0,1-5.84-.78,3.45,3.45,0,0,0-2.59.36c-.05.13-.1.24-.15.34a3.12,3.12,0,0,0-1.87-1.47,5.42,5.42,0,0,0-1.2-.23l-29.21.69c-1.63.46-4.35.3-4.18,2.42.19,2.44,3,2,4.68,1.78a91.15,91.15,0,0,1,14.49-.64c3.57.87,7.12,2.47,10.79.37h0a.47.47,0,0,0-.09.06,1,1,0,0,0,.39,1c3.22.78,6.46,1.47,9.81,1a4.26,4.26,0,0,0,.57-.6l.08.11c1,2.55,3.87,1.88,5.48,3.35,1.66.87,3.13,2.13,5.06,2.41a9.32,9.32,0,0,1,6,2.5,8.51,8.51,0,0,0,4.24,2.35,2.17,2.17,0,0,0,1.72-.33l.17.16c.51,1.25,1.21,2.24,2.74,2.15l.41-.19.61.63.55,0-.09.11c1.18,2.71,3.3,4.55,5.56,6.26,1.15.91,2.1,2.16,3.75,2.18.23.08.43.18.65.27l1.72,2.11a9.86,9.86,0,0,0,4.27,4.59l.27-.09a.54.54,0,0,0,0,.11c.69,3.12,3.36,4.77,5.08,7.13a2.15,2.15,0,0,0,.93.25,3.62,3.62,0,0,1,.46.06l4.56,7.62a1.06,1.06,0,0,0,.83,1.4c2.12,2.38,2.79,5.61,4.54,8.21a6.51,6.51,0,0,1-.13.77,5.62,5.62,0,0,0,.76,3.52c.44.69.84,1.42,1.78,1.53a.23.23,0,0,0,.11,0v0c.87,2,.94,4.45,2.48,6.21a1.48,1.48,0,0,0,0,.19,2.63,2.63,0,0,0,1,1.71l.54.44c-1,2.18-.66,4.5-.42,6.8.68,5.39,1.75,10.77.81,16.24-.49,6.74-.32,13.56-2,20.18a15.53,15.53,0,0,0-.37,1.64,55.15,55.15,0,0,1-3.2,9.65c-1.75,4.44-3.39,8.93-5.92,13-.48.79-1.15,1.58-.86,2.59l-.6.22c-.85.5-1.67,1.22-1.47,2.2.48,2.24-.89,3.2-2.37,4.19a53.89,53.89,0,0,0-7.15,6.53,52.43,52.43,0,0,1-4.44,4.38c-2.21,1.67-4.31,3.51-6.55,5.15A8.75,8.75,0,0,1,230.7,245a15.11,15.11,0,0,0-4.74,2.18,1.28,1.28,0,0,0-.33.84c.14.23.25.62.12.68-5.42,2.54-10.86,5.06-16.84,6a2.33,2.33,0,0,0-.78-.27c-1.78,0,.51-1.28-.49-1.53a1.43,1.43,0,0,0-.65-.68c-1.17-.42-2.28.09-3.4.3a11.42,11.42,0,0,0-3.19,1.16c-.71.53-.47,1.41-.73,2.1-1.4,1.43-2.75.46-4.11-.11-.65-.27-1.35-.37-2-.59-2-.72-3.93-1.38-6.1-.54a14.61,14.61,0,0,1-8.92.29,9,9,0,0,0-5.08.23c-.55.6-.66.93-.54,1.14-1.49-.31-3.4.05-5.14-.47a149.72,149.72,0,0,1-21-7.7c-.43-.21.08-.57,0-.85-1.73-2.58-4.79-3-7.15-4.52-3.11-.47-3.8.22-2.91,3a10.8,10.8,0,0,0,1.17,2.2c.37.58.74,1.16,1.13,1.72a40.65,40.65,0,0,0,2.54,3.33c2,2.55,1.9,2.76-1.33,3.65a3.86,3.86,0,0,1-3.37.18c-5.68-2.18-10.4-5.93-15.24-9.5a1.59,1.59,0,0,1-.45-1.3c-.22-1.69-1.65-2.32-2.73-3.25-2.27-2.33-4.82-4.32-7.2-6.51-1-.76-1.69-2.23-3.35-1.7-.65,1.07,0,2.21-.15,3.31a1.33,1.33,0,0,1-.11.32l-1.66-.85c-1-1.69-1.64-4-4.38-3.48-1.61-.77-2.17-3.09-4.32-3.05-.13,2.59,1.17,4.4,3.13,5.83a20.22,20.22,0,0,1,1.64,1.83c4.54,6.34,9.49,12.29,15.61,17.13a1.64,1.64,0,0,1,0,.23,2.68,2.68,0,0,0,.21,1c3,3.48,7,5.48,10.57,8.23,2.82,1.76,5.65,3.49,8.62,5,1,.5,2.07,1,3.07,1.57,3.63,1.56,7.11,3.5,11,4.49,1.85.39,3.54,1.53,5.55,1.2a1.6,1.6,0,0,0,.47-.31l3.76,1.32c.91-.32,2,1.09,2.68-.13.29-.56-.81-.58-1.25-.88h0l0,0c.29.07.58.16.88.21a27.86,27.86,0,0,1,3.6.79c2.31.71,4.74.84,7.08,1.45a16.15,16.15,0,0,0,3.4.27h.53c.68.39,1.72-.07,2.36.42,1.46,1.33,3.6.07,5.06,1.4a29.52,29.52,0,0,1,7.8,0c1.47-.77,3.08-.63,4.68-.6a20.66,20.66,0,0,0,4,.07,9.27,9.27,0,0,0,2.17-.1c2.23-.66,4.7-.37,6.76-1.74a3.13,3.13,0,0,1,.17-1.13c-.27-.44-1.19-.47-1.18-1.29,2.44,0,4.46-1.79,7-1.59a1.2,1.2,0,0,1,.54.27c1.7-.74,3.58-1.07,5-2.48a3.42,3.42,0,0,1,1.12-.89A120,120,0,0,0,257,250.88c.43-.38.57.11.76.38s.82.59.73.65c-3,1.87-5,5-8.08,6.79a46.79,46.79,0,0,1-6.5,4.42A92.2,92.2,0,0,1,228.73,271a17.47,17.47,0,0,1-3.59,1.53c-1.07.42-2.17.75-3.21,1.25-.79.63-1.87.67-2.61,1.38a1.21,1.21,0,0,0,0,.95,2,2,0,0,0,1.16.5c-.05.35-.38.15-.54.29a24.24,24.24,0,0,1-2.36.65c-1.42.84-3.56.64-4,2.88,2.18,2.14,4.28.13,6.42-.14a15.41,15.41,0,0,1,5.19-1c1.58-.62,3.15-1.22,4.87-.71,1.43,0,2.73-.79,4.16-.78a1.79,1.79,0,0,0,.53-.32H235a13.35,13.35,0,0,1-8.16,3.08c-2.3.24-4.26,1.6-6.51,2a31.92,31.92,0,0,1-7.12,1.25c-6.8.25-13.57,1.08-20.37,1.38-3.23,0-6.46-.13-9.69.11a4.54,4.54,0,0,0-1.08.29,7.77,7.77,0,0,0-.89.65,3.56,3.56,0,0,0-1.83.65h0l-.46,0-.21-.07a18.1,18.1,0,0,0-2.33-.13l-3.32-.41-.16-.05a14.24,14.24,0,0,0-2.44-.27c-1.94-.78-4-.76-6.05-1.1h0l-3.52-.68a3.83,3.83,0,0,1-.44-.25,16.83,16.83,0,0,1-2.19-.58,2.32,2.32,0,0,0-.37-.13l.15-.69a9.26,9.26,0,0,0-6.43-1.45,2,2,0,0,0-1.43-1.61l-.73.17-2-.81h0l-3.64-1.34h0l-1.17,1.09-.41-.2a18.39,18.39,0,0,1-3.49-1.55c-1.83-.77-3.45-2.11-5.57-2.08a2.91,2.91,0,0,1-.7.11l-8.16-5.34A25.73,25.73,0,0,1,118,265a18,18,0,0,0-7.83-6.52l-2.89-2.94c-1.63-2.27-3-4.84-5.87-5.72l-.21-.34a2.55,2.55,0,0,0-.62-2.18A46.39,46.39,0,0,1,97,243a2.33,2.33,0,0,0-1.17-.61c-.32-2.57-2.43-4.06-3.6-6.11-3.9-6.54-8.24-12.84-10.76-20.15a118.47,118.47,0,0,1-4.61-12.68,98.06,98.06,0,0,1-2.89-10.79c-.88-2.32-.63-5-2.2-7.12A28.3,28.3,0,0,1,76,186.56c3.38.76,6.82,1.16,10.25,1.63,3.72-.22,7.37.85,11.08.68,3.19-.78,6.47-.46,9.69-.91,3.36-.75,6.82-1.07,10.11-2.19a97.26,97.26,0,0,0,22.51-9.32c2.42-1.61,5-3,7.31-4.75a95.21,95.21,0,0,0,14.37-13.15,79.63,79.63,0,0,0,7.27-8.79c1.34-1.67,2.43-3.51,3.64-5.27l3.57-6c2-4,3.89-7.93,5.54-12a8.86,8.86,0,0,0,.83-2.45,3.07,3.07,0,0,0-.13-1,1.2,1.2,0,0,0-.15-.24c1.17-1,1.11-2.5,1.21-3.94h0l1.37-2.17c-.67-.81.22-1.5.16-2.26.14-.43.3-.88-.12-1.24s-.87,0-1.09.31c-.62,1-.42,2.25-1.07,3.22h0v2.18h0a7.34,7.34,0,0,0-1.37,3.37l-.16,0c-3.23-.07-4.38,2.57-5.91,4.71-.57.81-.31,1.93-1.32,3.16,1-1.35.72-2.55,1.37-3.43,2.25-3,2.55-6.77,4-10.09a96.08,96.08,0,0,0,2.15-11,32.08,32.08,0,0,0-.07-6.12c-.16-1.25-.61-2.41-2-2.66s-2.17.78-2.71,1.88c-1,2.06-1.31,4.36-1.9,6.57A126,126,0,0,1,167.75,127a11.66,11.66,0,0,0-.79,2.47c-.22.5-.37,1.05-.9,1.33a2.66,2.66,0,0,0,.86-1.4,12.32,12.32,0,0,1,1-2.91,96.75,96.75,0,0,0,3-9.82c.2-1.3.64-2.52,1-3.78.69-2.44.64-5,1.25-7.45a21.33,21.33,0,0,0,.18-3.66c-.19-1.85.37-3.81-.78-5.52-2.19-.47-2.48,1.31-2.89,2.7a51,51,0,0,0-1.13,6.3,61.14,61.14,0,0,1-2.65,10.85c-1.34,4-2.17,8.18-4.64,11.7s-3.89,7.74-7.08,10.76c-1.36,1.4-2.25,3.2-3.71,4.51-2.2,2.63-5.42,4-7.75,6.43a17.88,17.88,0,0,1-3.05,2.29,66.51,66.51,0,0,1-11,6.42,26,26,0,0,1-3.16,1.49c-2.6,1-5.23,1.88-7.9,2.66a90,90,0,0,1-9.57,2.3,19.57,19.57,0,0,1-12.37.65c-3.39-.3-6.8-.41-10.06-1.59.89-1,.35-2.31.59-3.45,2.65-3.14,2.35-7.15,3-10.86a4.73,4.73,0,0,0-.3-.77l.45-.93a7.84,7.84,0,0,0,2.09-6.16c0-.08-.06-.14-.09-.21,1.12-.4,1.12-1.62,1.47-2.58a3.88,3.88,0,0,0,0-1l-.12-.25a5,5,0,0,0,1-2.61c-1.52-.16-1.52,1.18-2,2.08-.21.25-.43.49-.65.73-.26,1-.52,1.94-.77,2.91h0a23.26,23.26,0,0,0-2.41,7h0c-1.63,3.55-2.08,7.4-2.76,11.18.58,1.61-1.12,3.25-.25,4.85a67.93,67.93,0,0,1-10.7-3.14,19.27,19.27,0,0,1-3.72-1.42l-.4-.19c.25-1.43.5-2.86.76-4.3-2.14.41-1.67,2.3-2.09,3.68h0a31.59,31.59,0,0,1-5.38-2.95c-2.57-1.84-5.15-3.65-7.65-5.61-.85-.75-1.61-1.58-2.4-2.4-3.85-1.85-5.65-5.51-7.62-9-.95-1.35-1.88-2.71-2.73-4.12A53.8,53.8,0,0,1,39.09,127c-2.54-3.06-2.33-7-3.3-10.59a37.82,37.82,0,0,1-1.18-8.21,10,10,0,0,0-.84-3c-1.26-1.85,1.18-2.09,1.36-3.3a22.52,22.52,0,0,0,.08-7,75.25,75.25,0,0,1,1.33-11.3c1.09-3.87,2.09-7.77,3.36-11.59,1-2,2.19-3.82,3.1-5.83a29,29,0,0,1,2.81-4.66c1.38-2.11,2.85-4.14,4.38-6.14,1.05-1.36,2.64-2.54,2.38-4.63-1.85-2-3.57-.26-5.34.19-1.18.58-2.33,1.23-3.53,1.79-2,.23-2,.23-.8-2.92,1.93-4,5.35-6.66,8.27-9.77a13.47,13.47,0,0,1,3-2.46c6-3,7.93-9.51,12-14.2,0,0,0-.06,0-.09.72-.38,1.64-.61,1.42-1.87a3.49,3.49,0,0,0-2.14.89l-.18-.1a3.3,3.3,0,0,0-1.56-.1c-3.24,1.09-6.1,3-9.16,4.44-1.08.74-2.14,1.51-3.25,2.22a48.94,48.94,0,0,0-7.84,5.76c-2.44,1.66-4.35,3.92-6.45,6a50.39,50.39,0,0,0-4.38,5.18,53.4,53.4,0,0,1-4.41,5.3c-1,1.94-3,3.44-2.43,6,2.1,1.06,2.55-.8,3.46-1.89-.75,1.08-1.25,2.44-2.82,2.72a2.1,2.1,0,0,0-.72.67,3,3,0,0,0-.15,1C24.66,63,22.6,65.89,21,69a9.28,9.28,0,0,0-1,1.85c-1.55,4.51-2.85,9.11-4.88,13.44-.86,3.49-1.09,7.1-1.66,10.64a36.94,36.94,0,0,0,.35,7.72c.72.78,1.58,1.28,1.55,2.72a28.19,28.19,0,0,0,.79,4.91c.1.33.2.66.31,1s0,.39,0,.59a2.66,2.66,0,0,0-.23-.76c-1.51-.11-1.84-1.11-1.79-2.41a32.39,32.39,0,0,1-.68-4.81c-.14-.76-.16-1.59-1-2-1.23.33-1.3,1.4-1.46,2.41a33.63,33.63,0,0,0,.17,5.85,10.54,10.54,0,0,1,0,6.62c-.61-1.69.16-3.28-.41-4.77-1-1.44-.65-3.11-.73-4.71a140.42,140.42,0,0,1,2.64-23c.18-1.74.76-3.42.64-5.19-1.35-4.32.74-8,2-11.87a59.79,59.79,0,0,1,4.17-9.9,70.26,70.26,0,0,1,4.32-7.17c1.29-1.46,2.39-3.09,3.61-4.61A72.48,72.48,0,0,1,43.07,29.8a13.16,13.16,0,0,0,1.17-.92,68.34,68.34,0,0,1,10.42-7.13c1.87-1,3.76-2,5.69-2.91l15.18-5.59c3.83-.92,7.61-2.14,11.55-2.57,3.14-.35,6.25-1,9.44-.8a18.85,18.85,0,0,0,8.33-1.33.83.83,0,0,0,.32-.36v.13c.28,1.43,1.47,1.31,2.48,1.5,1.46,0,3,.29,4-1.37-.87-1.07-1.89-.67-2.88-.43a1.4,1.4,0,0,1-1.5-.67l-2.19.16-2.81-.22c-4.86-.19-9.65-1.42-14.54-1a79.17,79.17,0,0,0-8.54,1.12A20,20,0,0,1,76,8.23a21.45,21.45,0,0,0,2.48-.75c2.34-.52,4.65-1.15,7-1.64,2.75-.48,5.59-.58,8.26-1.49,1.53-.52,3.53-.88,2.76-3.41C92.78-.35,89,0,85.17.15l-10,1.56L64.42,5,58.14,7.46,43.93,14.82a27.43,27.43,0,0,1-6,4.12c-2.34.14-3.45,2.34-5.29,3.31-2.16,2.46-4.84,4.31-7.18,6.54-1.35,1.39-2.22,3.19-3.69,4.46-2.18,2.24-3.76,5-5.75,7.35a94.47,94.47,0,0,0-5.19,8.58c-.42.94-.9,1.84-1.39,2.73A63.61,63.61,0,0,0,5.14,62.24c-1.24,3.43-2,7-2.91,10.52C1,79.34.86,86,0,92.66c-.12,4.29,1,8.52.65,12.82.63,3.62,1.07,7.26,1.52,10.91.76,3.39,1.21,6.85,2.24,10.18a65,65,0,0,0,4.32,11.71c.58,1.05,1.09,2.14,1.67,3.19,1.77,2.78,3.92,5.28,5.73,8,1.76,1.93,3.38,4,5,6,1.71,1.72,3.44,3.43,5.1,5.2,1.82,1.87,4.05,3.25,5.9,5.08,2.55,2,5.11,4,7.8,5.79,1.24.78,2.45,1.59,3.71,2.34a45.22,45.22,0,0,0,11.51,5.89c1.85.78,3.74,1.47,5.57,2.31,1.89.64,3.79,1.25,5.68,1.91a33.46,33.46,0,0,1,3.26.9l.17.05c-1.18,2.58.37,5.18.3,7.77.64,3.68,1.41,7.33,2,11,2.09,6.45,3.61,13.1,6.55,19.25,1,1.38.84,3.55,2.68,4.42-.6,1.66.48,2.88,1.15,4.21,1,1.7,1.85,3.52,3,5.14a39.19,39.19,0,0,1-2.75-4.63,22.75,22.75,0,0,1-2.67-5.36c-2.41-3.93-3.7-8.48-6.59-12.15a.5.5,0,0,0-.58.26c-1.59-1.64-3.38-7.24-3.08-9.61a2.94,2.94,0,0,0,0-1.53c-.9-1.6-1-3.82-3.21-4.39l0,0c-.26-1.15-.84-1.91-2.12-1.82-1.06,2-.39,4.27-.8,6.37-1.36,2.09,0,4,.39,5.95.38,1.22.81,2.41,1.16,3.64,1.38,4.24,3.11,8.35,4.72,12.51A162,162,0,0,0,81.61,247c1.41,1.59,2.41,3.48,3.74,5.12a2.18,2.18,0,0,0,1.33.72c.33,2.56,2.37,4,3.79,5.8a2.14,2.14,0,0,0,1,.28,2.27,2.27,0,0,1,1.89.79c3.19,3.22,6.33,6.48,9.54,9.68a2.2,2.2,0,0,1,.66,1.94c.37,1.05,1,1.67,2,1.33a2.81,2.81,0,0,0,.62,1.54c2.51,2.22,4.69,4.94,8.23,5.58,1.35.69,2.77,1.29,3.64,2.66q7.14,4,14.3,8c2.62.38,4.79,1.93,7.15,2.95,3.55,1.25,7.32,1.81,10.68,3.61,2.37,0,4.55,1.34,7,.95l3.78,1.27,4.86.16a1.39,1.39,0,0,1,.12.57c2.2-.33,4.49.54,6.63-.53h0c2.7,0,5.41.58,8.12,0,.9.87,2.09.26,3.08.64,1.66-.57,3.52.39,5.12-.67h0c1.87.68,3.72-.6,5.59-.07a22.5,22.5,0,0,1,6.27-.82l13-2.81,3-1.37h0c3-.05,5.48-2,8.4-2.4l2.91-1.21c2.4.43,4.43-.7,6.5-1.63a79.93,79.93,0,0,0,12.19-5.61,38.28,38.28,0,0,1,4.26-2.54c1.12-.76,2.57-1.24,2.75-2.83h.11a2.5,2.5,0,0,0,2.4-1.63,6.11,6.11,0,0,1,2.11-2.84,125.65,125.65,0,0,0,25.36-34.22c.55-1.07,1.07-2.18,2.3-2.62a4.53,4.53,0,0,0,.82-.62,3.27,3.27,0,0,0,.74-2.39c1.69-.35,1.47-2.25,2.33-3.28.52-1.26,1.21-2.48.81-3.94.53-1.92,1.06-3.83,1.6-5.75,0,0,0-.06,0-.09l.34.18c2-1.42,2-3.84,2.75-5.9.92-3.57,1.73-7.17,2.67-10.73.82-5.76,1.61-11.53,1.93-17.35A104,104,0,0,1,299.74,175.69ZM193,71.46l.13.08,0,0-.31-.14ZM104,238.07l-.12.12s0,0,0,0l-.29-.4Zm70,18.59-.11-.05a2.59,2.59,0,0,1,.42.09c.24.06.35.07.35-.06C174.71,256.15,175.11,257,174,256.66Zm13.33,21.92-.24-.07C187.24,278.47,187.33,278.48,187.36,278.58Zm-.08.41a.19.19,0,0,1,0,.07l-.17,0ZM69.55,9.88h0V9.83h0Zm5.73-1.45h-.07l.51-.12Zm-57,114.12c0-.15-.06-.3-.08-.45a2.66,2.66,0,0,0,.26.6l-.06.06A.72.72,0,0,0,18.26,122.55ZM16.58,113c.29,2.84,1.18,5.58,1.47,8.42-.46-2.59-.95-5.17-1.46-7.76C16.58,113.45,16.58,113.23,16.58,113ZM164,285h0l.46-.2A1,1,0,0,1,164,285Zm46.89,9.86Zm-2.88.74h0l.09,0h0Zm5.72-1.47h0A1.7,1.7,0,0,0,214,294,2.23,2.23,0,0,1,213.69,294.17Zm1-.34-.36.05a6.23,6.23,0,0,1,.62-.15Zm73.9-89.22a1.22,1.22,0,0,1-.54-.06c-.28.78-.54,1.56-.82,2.34a1.75,1.75,0,0,0-.58,0c-2.23,6.42-5.31,12.46-8,18.65l-2,2.45c-2.22-1.46-.09-2.74.43-3.65a104.74,104.74,0,0,0,9-21.46c2.1-6.91,4.11-13.84,4.13-21.18a7.34,7.34,0,0,1,.95-3.4c.1,3.49-.61,6.94-.21,10.41-1.3,1-.6,2.47-.72,3.75h0c-.88,1,.18,1.82.15,2.74-.87,1.75-2.15,3.42-.92,5.52h0l0,0C289.76,202.1,289,203.32,288.59,204.61Z"/><path d="M76.62,134.89l1.29-3,.72-2.2L80,127.44c3.06-2.91,3.71-7.29,6.22-10.54A115.34,115.34,0,0,1,94,105.34a14.23,14.23,0,0,1,2.38-3c2-2.7,4.31-5.12,6.46-7.7a23.24,23.24,0,0,1,4.26-4.43c2.75-1.2,3.51-4.38,5.77-6.07.75-1,1.71-1.88,1-3.32-2.46-.89-3.66,1.26-5.16,2.39C100.42,89.46,94,97.53,88.16,106c-2.24,3.28-4,6.88-6,10.28-1.7,4.07-4.41,7.75-4.47,12.43v0c-.14,0-.25.11-.29.34l-.24,1.79h0c-.41.81-.81,1.63-1.22,2.45C76,133.94,76,134.58,76.62,134.89Z"/><path d="M84.42,214.86c.3.45.59.9.88,1.35.2.75.39,1.5.59,2.25a2.35,2.35,0,0,0,.64.09c.64,1.47.41,3.41,2.19,4.27.17-1.73-.79-3-1.57-4.41h0L86.45,215a.46.46,0,0,0-.18-.25,2.27,2.27,0,0,0,0-.78c-.81-1.63-1-3.53-2.29-4.93a1.06,1.06,0,0,0-.44-.13c1.22-1.13.34-2-.4-2.86l-.26,0c.58-.86.2-1.39-.43-1.84l.13-.2a.75.75,0,0,0-.29-.75c-.29-.72-.59-1.44-.89-2.16-.23-1.21-.47-2.43-.71-3.64l.09-1.32c-.88-.84-.22-2.11-.82-3-.14-.71.41-2-.64-2s-.18,1.31-.54,1.94l.62.87h0a6.42,6.42,0,0,0,.71,4.36c.07,1.11.13,2.21.19,3.31l.57.26a4,4,0,0,0,.71,2.91h0c.24.73.48,1.46.71,2.18h0A1.86,1.86,0,0,0,83,209h0C82.79,211.13,84.18,212.85,84.42,214.86Zm-1.17-6h.06a1,1,0,0,0-.27.1Z"/><path d="M139.37,32.84V31.6l-2.06-.9C137.08,32.32,138.17,32.64,139.37,32.84Z"/><path d="M139.43,241l1.44.06c.68.74,1.36,1.49,2.6,1.06-.6-1.17-1.7-1.35-2.58-1.85h0a2.76,2.76,0,0,0-2-1.55h0l-2.28-2.07-2-.65c.05,1.87.81,3.18,2.72,3.59h0Z"/><path d="M210.47,281.05l-4.51.79C207.77,283.38,209.2,282.66,210.47,281.05Z"/><path d="M202.85,283.12c-1.29-.91-2-.25-3,.62C201.07,284.06,202,284.3,202.85,283.12Z"/><path d="M141.37,276.67c.19-.91-1.26-1-2-1.53l-1.14.47,1.19,1.07C140.13,276.44,141.11,277.84,141.37,276.67Z"/><path d="M168,279.6c-.2-2-1.72-1.27-2.81-1.42C165.38,280.21,166.9,279.46,168,279.6Z"/><path d="M144.36,36.81a2.53,2.53,0,0,0-2-2.12C142.7,36,143.22,36.59,144.36,36.81Z"/><path d="M114.78,80.2c1,.36,1.68-.47,2.52-.74.45-.69,1.5-1.18.72-2.28C116.87,78.11,115.05,78.3,114.78,80.2Z"/></svg>