<?xml version="1.0" encoding="utf-8"?>
<!-- Generator: Adobe Illustrator 25.0.0, SVG Export Plug-In . SVG Version: 6.00 Build 0)  -->
<svg version="1.1" id="Capa_1" xmlns="http://www.w3.org/2000/svg" xmlns:xlink="http://www.w3.org/1999/xlink" x="0px" y="0px"
	 viewBox="0 0 300 300" style="enable-background:new 0 0 300 300;" xml:space="preserve">
<g>
	<path d="M-0.18,275.5c0-83.67,0-167.33,0-251c0.62,0.06,0.43-0.46,0.49-0.73C2.59,11.95,11.76,2.78,23.59,0.49
		c0.27-0.05,0.8,0.13,0.73-0.49c83.67,0,167.33,0,251,0c-0.07,0.62,0.46,0.43,0.73,0.49c11.83,2.28,20.97,11.42,23.28,23.29
		c0.05,0.27-0.14,0.8,0.49,0.73c0,83.67,0,167.33,0,251c-0.62-0.08-0.43,0.45-0.49,0.72c-2.3,11.85-11.43,20.98-23.29,23.29
		c-0.27,0.05-0.8-0.14-0.72,0.49c-83.67,0-167.33,0-251,0c0.07-0.62-0.45-0.43-0.73-0.49c-11.84-2.3-20.99-11.45-23.29-23.29
		C0.25,275.96,0.44,275.43-0.18,275.5z M185.63,238.81c-0.05,0.4-0.08,0.55-0.08,0.71c0,9.25,0,18.5-0.02,27.75
		c0,0.66,0.28,0.94,0.82,1.2c4.3,2.07,8.8,3.53,13.45,4.53c10.91,2.36,21.95,2.93,33.05,1.92c6.94-0.63,13.77-1.89,20.23-4.69
		c10.47-4.53,17.88-11.86,20.88-23.13c0.91-3.4,1.17-6.89,1.24-10.4c0.23-11.28-3.63-20.76-12.33-28.14
		c-4.97-4.22-10.62-7.3-16.46-10.07c-5.71-2.71-11.68-4.87-17.27-7.82c-3.92-2.07-7.74-4.29-10.55-7.84
		c-3.6-4.55-3.2-10.43,0.96-14.46c1.73-1.68,3.8-2.83,6.06-3.64c5.6-2.01,11.38-2.31,17.25-1.79c9.27,0.82,17.96,3.38,25.85,8.43
		c0.19,0.12,0.37,0.37,0.74,0.12c0-0.4,0-0.85,0-1.3c0-8.08-0.03-16.17,0.03-24.25c0.01-1.17-0.36-1.63-1.45-2.01
		c-7.78-2.72-15.82-3.91-24-4.31c-10.5-0.53-20.91-0.02-31.03,3.14c-7.35,2.29-13.95,5.87-19.22,11.62
		c-6.71,7.31-9.08,16.08-8.73,25.79c0.34,9.58,3.89,17.7,10.88,24.29c5.34,5.04,11.62,8.6,18.3,11.51
		c5.76,2.5,11.64,4.74,17.18,7.72c3.87,2.08,7.56,4.42,10.26,8.01c4.02,5.35,2.93,12.3-2.51,16.16c-2.49,1.77-5.31,2.82-8.27,3.36
		c-11.52,2.12-22.53,0.31-33.09-4.6C193.45,244.62,189.51,242,185.63,238.81z M106.39,220.06c0,17.33,0,34.66,0,51.99
		c0,1.59,0,1.59,1.64,1.59c8.79,0,17.58,0,26.37,0c2.05,0,1.83,0.21,1.83-1.78c0-34.62,0.01-69.24-0.03-103.86
		c0-1.27,0.32-1.57,1.57-1.57c11.58,0.05,23.16,0.02,34.74,0.05c1,0,1.35-0.19,1.34-1.28c-0.05-7.21-0.05-14.41,0-21.62
		c0.01-1.03-0.33-1.22-1.27-1.22c-34.12,0.02-68.24,0.02-102.36,0c-0.93,0-1.29,0.17-1.28,1.21c0.05,7.21,0.05,14.41,0,21.62
		c-0.01,1.08,0.34,1.28,1.34,1.28c11.54-0.03,23.08,0,34.62-0.05c1.2-0.01,1.51,0.29,1.51,1.5
		C106.37,185.31,106.39,202.69,106.39,220.06z"/>
</g>
</svg>
